<svg xmlns="http://www.w3.org/2000/svg" viewBox="0 0 1010 1010" xml:space="preserve"><path fill="#FC6E51" d="M1010 505c0 278.904-226.106 505-505 505C226.086 1010 0 783.904 0 505S226.086 0 505 0c278.894 0 505 226.096 505 505z"/><path fill="#FFF" d="M587.102 286.055h109.463c10.08 0 18.246 8.176 18.246 18.247v465.25c0 10.08-8.167 18.248-18.246 18.248H313.416c-10.08 0-18.247-8.167-18.247-18.247V304.302c0-10.07 8.166-18.247 18.247-18.247h109.482"/><path fill="#454545" d="M696.564 797.9H313.416c-15.629 0-28.348-12.724-28.348-28.347V304.302c0-15.623 12.72-28.347 28.348-28.347h109.482v20.2H313.416c-4.493 0-8.147 3.65-8.147 8.147v465.25c0 4.499 3.654 8.148 8.147 8.148h383.149c4.488 0 8.147-3.65 8.147-8.147V304.302c0-4.498-3.66-8.147-8.148-8.147H587.101v-20.2h109.463c15.634 0 28.348 12.724 28.348 28.347v465.25c0 15.624-12.714 28.348-28.348 28.348z"/><g><path fill="#FFB933" d="M568.855 267.808s-27.36-5.938-27.36-9.114c0-20.17-16.354-36.494-36.495-36.494-20.16 0-36.494 16.323-36.494 36.494 0 3.176-27.36 9.114-27.36 9.114-10.081 0-18.248 8.176-18.248 18.247v36.494c0 10.07 8.167 18.247 18.247 18.247h127.71c10.06 0 18.247-8.177 18.247-18.247v-36.494c0-10.07-8.187-18.247-18.247-18.247z"/><path fill="#454545" d="M568.855 350.896h-127.71c-15.628 0-28.347-12.724-28.347-28.347v-36.494c0-15.229 12.063-27.686 27.134-28.327 7.166-1.579 14.573-3.581 18.859-5.03C461.74 229.833 481.338 212.1 505 212.1s43.26 17.734 46.21 40.597c4.285 1.45 11.692 3.452 18.858 5.03 15.07.642 27.134 13.1 27.134 28.328v36.494c0 15.623-12.719 28.347-28.347 28.347zM505 232.3c-14.553 0-26.394 11.836-26.394 26.394 0 8.354-5.336 12.477-35.32 18.977-.701.158-1.42.237-2.14.237-4.494 0-8.148 3.65-8.148 8.147v36.494c0 4.498 3.654 8.147 8.148 8.147h127.709c4.493 0 8.147-3.65 8.147-8.147v-36.494c0-4.498-3.654-8.147-8.147-8.147-.72 0-1.44-.079-2.14-.237-29.985-6.5-35.32-10.623-35.32-18.977 0-14.558-11.841-26.394-26.395-26.394z"/></g><g><circle fill="#ACAF48" cx="373.7" cy="446.56" r="40.4"/><path fill="#454545" d="m373.7 470.941-27.341-27.339 14.282-14.283 13.059 13.059 33.259-33.259 14.282 14.282-47.541 47.54z"/><circle fill="#ACAF48" cx="373.7" cy="567.76" r="40.4"/><path fill="#454545" d="m373.7 592.143-27.341-27.342 14.282-14.281 13.059 13.058 33.259-33.26 14.282 14.284-47.541 47.541z"/><circle fill="#ACAF48" cx="373.7" cy="688.96" r="40.4"/><path fill="#454545" d="m373.7 713.342-27.341-27.341 14.282-14.282 13.059 13.058 33.259-33.257 14.282 14.281-47.541 47.541zM676.7 436.46h-202v-20.2h202v20.2zM595.9 476.859H474.7V456.66h121.2v20.199zM535.3 557.66h-60.6v-20.2h60.6v20.2zM676.7 557.66H555.5v-20.2h121.2v20.2zM636.3 598.061H474.7v-20.202h161.6v20.202z"/><g><path fill="#454545" d="M676.7 678.859h-202V658.66h202v20.199z"/></g><g><path fill="#454545" d="M535.3 719.26h-60.6v-20.199h60.6v20.199z"/></g><g><path fill="#454545" d="M616.1 719.26h-60.6v-20.199h60.6v20.199z"/></g></g></svg>